<?xml version="1.0" standalone="no"?>
<!DOCTYPE svg PUBLIC "-//W3C//DTD SVG 20010904//EN"
 "http://www.w3.org/TR/2001/REC-SVG-20010904/DTD/svg10.dtd">
<svg version="1.0" xmlns="http://www.w3.org/2000/svg"
 width="481.000000pt" height="650.000000pt" viewBox="0 0 481.000000 650.000000"
 preserveAspectRatio="xMidYMid meet">

<g transform="translate(0.000000,650.000000) scale(0.100000,-0.100000)"
fill="#e7a582" stroke="none">
<path d="M3371 6373 c-13 -9 -39 -33 -58 -54 -41 -46 -93 -66 -192 -74 -158
-14 -392 -108 -536 -217 -219 -165 -450 -456 -520 -655 -31 -90 -45 -213 -24
-213 8 0 53 32 99 70 101 84 156 112 227 118 70 6 137 -17 243 -83 141 -87
117 -89 226 13 57 54 119 102 157 121 62 31 220 71 233 59 3 -4 1 -51 -5 -105
-6 -54 -20 -186 -31 -293 -78 -747 -74 -716 -114 -795 -27 -52 -39 -92 -47
-154 -11 -79 -10 -85 11 -113 19 -26 20 -34 12 -75 -6 -25 -8 -52 -5 -60 14
-35 97 -21 112 19 4 13 6 51 3 84 l-4 62 55 41 c43 31 58 49 62 74 10 53 3 92
-16 89 -38 -6 -40 18 -19 224 18 177 40 372 70 631 14 118 47 303 59 335 9 25
12 26 53 17 60 -14 91 -36 188 -133 46 -48 87 -86 91 -86 4 0 51 34 105 76
154 118 238 151 360 141 81 -6 141 -35 234 -116 41 -35 84 -71 94 -80 18 -16
19 -14 13 60 -14 194 -145 442 -320 606 -158 148 -262 208 -487 283 -167 56
-250 89 -250 99 0 3 5 22 10 41 8 29 7 37 -7 48 -23 17 -54 15 -82 -5z"/>
<path d="M2208 4947 c-73 -25 -154 -76 -207 -131 l-34 -35 62 -57 c34 -31 60
-59 57 -61 -12 -12 -67 17 -113 60 -46 43 -60 51 -102 55 l-49 4 -7 -70 c-8
-86 0 -104 65 -137 77 -39 90 -89 30 -120 -74 -38 -139 0 -159 93 -6 29 -11
61 -11 70 -1 13 -6 11 -25 -11 -35 -39 -41 -88 -19 -159 l18 -60 -24 -43 -24
-43 35 -57 c91 -150 253 -281 383 -310 69 -15 81 -15 151 -1 109 23 115 22
115 -14 0 -17 -7 -47 -15 -67 -34 -82 -13 -83 40 -1 42 66 54 63 36 -8 -7 -27
-8 -51 -3 -61 9 -15 22 32 48 165 13 68 37 15 33 -74 -1 -27 1 -60 6 -73 11
-36 24 -7 31 71 12 126 14 128 136 178 l70 29 24 -26 24 -26 0 29 c0 16 5 36
10 44 9 13 13 11 31 -10 11 -14 27 -33 34 -42 33 -40 33 -13 0 50 -19 38 -35
74 -35 81 0 14 57 12 95 -4 18 -7 18 -6 -3 17 -23 26 -23 27 -7 62 20 41 13
72 -17 82 -17 5 -27 0 -44 -21 -16 -21 -28 -26 -45 -22 -15 4 -31 -2 -51 -19
-37 -30 -55 -30 -93 0 -27 22 -31 22 -52 9 -27 -18 -115 -10 -152 14 -23 15
-24 16 -6 29 10 7 41 20 69 28 51 15 86 44 121 99 l18 29 -39 -7 c-21 -4 -79
-16 -129 -26 -102 -22 -125 -23 -125 -8 0 15 85 50 236 98 103 32 139 48 165
73 l34 33 -60 3 c-99 4 -98 3 -179 126 -77 117 -119 159 -183 182 -54 19 -88
17 -165 -9z"/>
<path d="M2702 4510 c-48 -30 -48 -40 0 -40 51 0 71 11 63 33 -10 25 -30 27
-63 7z"/>
<path d="M1497 4146 c-71 -48 -286 -237 -359 -315 -83 -88 -122 -163 -143
-276 -9 -49 -34 -146 -55 -215 -93 -299 -123 -431 -149 -658 -11 -89 -24 -169
-29 -179 -6 -10 -37 -27 -69 -38 -57 -20 -58 -20 -61 -62 -3 -41 -3 -42 35
-48 58 -10 63 -12 74 -42 7 -19 7 -40 -1 -71 -18 -73 -2 -92 82 -92 41 0 43 3
53 90 4 30 14 66 22 78 14 23 15 23 34 6 12 -11 19 -30 19 -54 0 -45 30 -80
68 -80 57 0 68 50 27 121 -14 24 -25 54 -25 66 0 24 34 53 62 53 9 0 20 9 23
21 9 29 -20 57 -72 71 -53 13 -72 38 -79 104 -12 95 11 189 73 311 37 71 60
108 65 100 5 -7 6 -66 2 -132 -6 -111 -4 -130 24 -250 48 -206 49 -188 -9
-225 -45 -29 -77 -65 -67 -76 2 -2 37 -8 76 -14 86 -12 142 -33 142 -54 0 -17
-46 -56 -66 -56 -7 0 -32 -25 -54 -55 l-41 -55 -72 0 c-49 -1 -112 -11 -195
-33 -112 -30 -124 -36 -142 -65 -24 -39 -32 -41 -28 -4 3 24 -1 27 -27 30 -39
5 -53 17 -64 59 -14 49 1 78 51 104 59 29 78 48 78 76 0 30 -25 30 -113 3
-122 -38 -159 -93 -133 -197 8 -32 16 -71 18 -88 2 -24 8 -31 33 -35 22 -4 30
-11 30 -25 0 -19 -8 -20 -104 -23 l-103 -3 -39 42 c-22 23 -39 48 -39 54 0 7
18 20 40 30 22 10 39 20 37 22 -4 4 -170 -17 -175 -22 -5 -4 36 -701 44 -772
5 -39 11 -47 107 -123 l102 -81 60 6 c258 26 779 208 1312 459 90 42 170 76
178 76 9 0 15 9 15 25 0 47 -111 249 -134 242 -6 -2 -17 -18 -25 -35 -14 -31
-17 -32 -70 -31 -31 1 -81 4 -111 7 -51 7 -55 9 -66 42 -7 19 -15 47 -18 63
-4 15 -12 27 -19 27 -7 0 -28 13 -47 29 -29 24 -34 34 -33 67 1 22 16 77 34
124 17 47 35 113 40 148 5 34 23 92 41 127 30 63 31 67 16 98 -19 39 -8 67 25
67 55 0 67 10 67 56 l0 43 48 3 c47 3 47 3 50 41 4 41 11 44 74 26 30 -8 45
-7 71 6 29 14 38 14 73 1 21 -8 53 -21 69 -30 34 -18 78 -21 106 -6 15 8 19
21 19 60 0 47 2 50 37 69 25 12 49 38 73 77 33 54 39 60 82 67 46 9 47 10 54
53 3 25 12 51 19 58 8 7 48 16 89 19 52 4 87 12 110 26 43 27 54 27 30 0 -10
-12 -51 -36 -90 -54 -66 -30 -109 -68 -98 -86 2 -4 18 -10 34 -14 20 -4 30
-13 30 -25 0 -23 -19 -30 -83 -30 -59 0 -123 -15 -133 -31 -10 -17 16 -28 52
-22 56 9 84 -3 84 -37 0 -31 -2 -32 -109 -44 -43 -4 -91 -31 -99 -54 -2 -7 16
-12 49 -14 47 -3 54 -6 59 -28 4 -14 3 -38 -2 -55 -17 -57 -11 -91 31 -167 44
-81 52 -128 25 -166 -23 -33 -49 -44 -78 -32 -38 14 -53 55 -59 162 -4 77 -10
107 -29 140 -13 23 -29 43 -35 46 -7 2 -28 -13 -46 -33 l-33 -36 -61 40 c-37
25 -72 41 -91 41 -71 0 -218 -78 -298 -157 -26 -27 -60 -75 -75 -108 -26 -56
-28 -70 -31 -222 l-4 -163 23 0 c17 0 23 -6 23 -22 0 -45 15 -53 52 -30 39 24
48 21 48 -17 0 -49 15 -56 39 -17 13 20 28 36 34 36 7 0 29 -18 49 -39 26 -28
49 -42 75 -46 115 -20 140 -38 167 -119 13 -37 19 -115 26 -310 10 -264 25
-536 36 -656 14 -149 -34 -303 -128 -405 -60 -65 -114 -100 -183 -115 -65 -15
-115 4 -175 65 -51 52 -67 56 -76 19 -16 -62 48 -170 125 -211 100 -52 204
-22 334 98 124 114 195 227 243 389 18 61 19 95 16 535 -3 400 -1 482 13 550
23 117 64 194 133 252 106 88 134 118 232 248 106 142 132 169 200 208 25 14
82 61 125 104 69 67 92 83 163 111 117 48 145 80 248 289 83 167 168 301 262
411 59 69 92 86 150 78 32 -4 56 -1 88 13 l43 20 3 93 3 93 53 28 c49 27 84
68 69 83 -3 4 -27 9 -52 11 -40 5 -52 1 -101 -31 -30 -20 -123 -73 -206 -117
-84 -45 -170 -93 -193 -109 -52 -36 -121 -105 -153 -152 -13 -21 -30 -38 -36
-38 -26 0 -115 50 -161 90 -28 24 -70 56 -94 72 -55 35 -101 36 -286 8 -71
-11 -133 -20 -137 -20 -18 0 -5 21 47 73 137 141 233 160 400 81 121 -57 267
-28 350 69 47 54 60 106 43 160 -11 37 -17 42 -43 42 -30 0 -35 -5 -71 -89
-15 -33 -63 -76 -86 -76 -5 0 -17 9 -28 20 -32 32 -25 77 20 145 41 61 48 91
30 126 -15 28 -42 23 -79 -13 -39 -38 -56 -70 -65 -120 -9 -51 -49 -96 -92
-104 -52 -10 -83 2 -90 34 -12 55 -16 62 -34 62 -10 0 -40 -16 -66 -35 -102
-73 -320 -154 -441 -162 -78 -5 -85 -4 -121 21 -21 14 -45 26 -53 26 -21 0
-48 -31 -79 -88 -28 -53 -54 -65 -64 -30 -12 47 -5 85 34 168 22 47 40 90 40
96 0 17 -35 24 -116 24 l-71 0 9 -42 c21 -102 20 -114 -6 -200 -24 -81 -54
-127 -74 -114 -5 3 -15 25 -22 50 -10 37 -9 56 4 114 28 125 18 143 -38 65
-19 -27 -48 -56 -65 -66 l-30 -18 -29 58 c-16 32 -46 108 -67 168 -63 182
-108 255 -157 255 -13 -1 -45 -16 -71 -34z"/>
</g>
</svg>
